
<svg xmlns="http://www.w3.org/2000/svg" xmlns:xlink="http://www.w3.org/1999/xlink" preserveAspectRatio="xMidYMid meet" version="1.0" viewBox="4.9 13.9 90.2 72.1" zoomAndPan="magnify" style="fill: rgb(255, 255, 255);" original_string_length="7931"><g id="__id131_sa2ky4t57"><path d="M13.43,58.351c-1.916,0-3.476,1.56-3.476,3.476s1.56,3.477,3.476,3.477,3.477-1.56,3.477-3.477-1.56-3.476-3.477-3.476Zm0,4.952c-.813,0-1.476-.662-1.476-1.477s.662-1.476,1.476-1.476,1.477,.662,1.477,1.476-.662,1.477-1.477,1.477Z" style="fill: inherit;"/><path d="M89.66,47.992V17.47c0-1.952-1.588-3.54-3.54-3.54H8.44c-1.952,0-3.54,1.588-3.54,3.54v47.24c0,1.957,1.588,3.55,3.54,3.55h28.783v8.572h-.447c-2.548,0-4.62,2.072-4.62,4.619s2.072,4.62,4.62,4.62h21.014c2.547,0,4.619-2.072,4.619-4.62s-2.072-4.619-4.619-4.619h-.448v-8.572h5.937c2.838,5.35,8.461,9.007,14.929,9.007,9.314,0,16.893-7.578,16.893-16.893,0-4.893-2.104-9.294-5.439-12.382ZM6.9,17.47c0-.85,.69-1.54,1.54-1.54H86.12c.85,0,1.54,.69,1.54,1.54v28.911c-.445-.302-.906-.582-1.38-.841V20.65c0-1.836-1.494-3.33-3.33-3.33H11.62c-1.842,0-3.34,1.494-3.34,3.33V55.4h-1.38V17.47ZM62.063,55.4H10.28V20.65c0-.733,.601-1.33,1.34-1.33H82.95c.733,0,1.33,.597,1.33,1.33v23.978c-1.888-.731-3.931-1.148-6.073-1.148-7.585,0-14.016,5.025-16.144,11.92Zm-4.273,23.432c1.444,0,2.619,1.175,2.619,2.619s-1.175,2.62-2.619,2.62h-21.014c-1.444,0-2.62-1.176-2.62-2.62s1.176-2.619,2.62-2.619h21.014Zm-18.566-2v-8.572h16.118v8.572h-16.118Zm17.138-10.572c-.007,0-.013-.004-.019-.004h-18.118c-.007,0-.013,.004-.019,.004H8.44c-.85,0-1.54-.695-1.54-1.55v-7.31H61.592c-.173,.967-.279,1.958-.279,2.974,0,2.072,.393,4.05,1.079,5.886h-6.031Zm21.846,9.007c-8.212,0-14.894-6.681-14.894-14.893s6.682-14.894,14.894-14.894,14.893,6.682,14.893,14.894-6.681,14.893-14.893,14.893Z" style="fill: inherit;"/><path d="M80.39,71.207h-4.366c-.552,0-1-.448-1-1v-2.194c-.652-.273-1.266-.629-1.834-1.066l-1.907,1.101c-.23,.132-.505,.167-.759,.1-.256-.068-.475-.236-.607-.466l-2.183-3.781c-.276-.478-.112-1.09,.366-1.366l1.903-1.099c-.047-.355-.07-.71-.07-1.061s.023-.706,.07-1.061l-1.903-1.098c-.229-.133-.397-.351-.466-.607-.069-.256-.033-.529,.1-.759l2.183-3.782c.133-.229,.351-.397,.607-.466,.257-.068,.529-.032,.759,.1l1.907,1.101c.568-.437,1.182-.793,1.834-1.066v-2.195c0-.552,.448-1,1-1h4.366c.552,0,1,.448,1,1v2.195c.652,.272,1.266,.629,1.834,1.066l1.907-1.101c.23-.133,.504-.168,.759-.1,.256,.068,.475,.236,.607,.466l2.183,3.782c.132,.23,.168,.503,.1,.759-.068,.256-.236,.475-.466,.607l-1.903,1.098c.047,.355,.07,.71,.07,1.061s-.023,.706-.07,1.061l1.903,1.099c.479,.276,.642,.888,.366,1.366l-2.183,3.781c-.133,.229-.351,.397-.607,.466-.255,.07-.529,.033-.759-.1l-1.907-1.101c-.568,.437-1.182,.793-1.834,1.066v2.194c0,.552-.448,1-1,1Zm-3.366-2h2.366v-1.893c0-.437,.283-.823,.7-.954,.869-.273,1.66-.733,2.351-1.367,.322-.296,.798-.348,1.176-.129l1.647,.951,1.183-2.049-1.643-.948c-.378-.218-.571-.657-.476-1.083,.101-.456,.152-.914,.152-1.36s-.051-.904-.152-1.36c-.095-.426,.098-.865,.476-1.083l1.643-.948-1.183-2.049-1.647,.951c-.378,.217-.854,.166-1.176-.129-.691-.634-1.482-1.094-2.351-1.367-.417-.131-.7-.517-.7-.954v-1.893h-2.366v1.893c0,.437-.284,.823-.7,.954-.869,.273-1.66,.733-2.351,1.367-.323,.295-.799,.347-1.176,.129l-1.647-.951-1.183,2.049,1.643,.948c.378,.218,.571,.657,.476,1.083-.101,.456-.152,.914-.152,1.36s.051,.904,.152,1.36c.095,.426-.098,.865-.476,1.083l-1.643,.948,1.183,2.049,1.647-.951c.377-.219,.853-.167,1.176,.129,.691,.634,1.482,1.094,2.351,1.367,.417,.131,.7,.518,.7,.954v1.893Zm1.183-4.836c-2.204,0-3.997-1.793-3.997-3.997s1.793-3.997,3.997-3.997,3.997,1.793,3.997,3.997-1.793,3.997-3.997,3.997Zm0-5.994c-1.101,0-1.997,.896-1.997,1.997s.896,1.997,1.997,1.997,1.997-.896,1.997-1.997-.896-1.997-1.997-1.997Z" style="fill: inherit;"/><path d="M27.466,45.48h-4.367c-.552,0-1-.448-1-1v-2.194c-.652-.273-1.266-.629-1.833-1.066l-1.907,1.101c-.48,.275-1.09,.112-1.366-.366l-2.183-3.781c-.276-.478-.112-1.09,.366-1.366l1.903-1.099c-.047-.356-.071-.711-.071-1.061s.024-.705,.071-1.061l-1.903-1.099c-.229-.133-.397-.351-.466-.607-.069-.256-.033-.529,.1-.759l2.183-3.782c.133-.229,.351-.397,.607-.466,.254-.07,.528-.033,.759,.1l1.907,1.101c.568-.437,1.181-.793,1.833-1.066v-2.195c0-.552,.448-1,1-1h4.367c.552,0,1,.448,1,1v2.195c.652,.272,1.265,.629,1.833,1.066l1.907-1.101c.23-.133,.504-.169,.759-.1,.256,.068,.475,.236,.607,.466l2.183,3.782c.132,.23,.168,.503,.1,.759-.068,.256-.236,.475-.466,.607l-1.903,1.099c.047,.356,.071,.71,.071,1.061s-.024,.705-.071,1.061l1.903,1.099c.479,.276,.642,.888,.366,1.366l-2.183,3.781c-.277,.478-.887,.641-1.366,.366l-1.907-1.101c-.568,.437-1.181,.793-1.833,1.066v2.194c0,.552-.448,1-1,1Zm-3.367-2h2.367v-1.893c0-.437,.283-.823,.7-.954,.869-.273,1.66-.733,2.351-1.367,.322-.296,.798-.348,1.176-.129l1.647,.951,1.183-2.049-1.643-.948c-.378-.218-.57-.656-.477-1.082,.102-.458,.153-.917,.153-1.361s-.051-.903-.153-1.361c-.094-.426,.099-.864,.477-1.082l1.643-.948-1.183-2.049-1.647,.951c-.378,.218-.854,.166-1.176-.129-.691-.634-1.482-1.094-2.351-1.367-.417-.131-.7-.517-.7-.954v-1.893h-2.367v1.893c0,.437-.284,.823-.7,.954-.869,.272-1.66,.732-2.351,1.367-.323,.296-.799,.347-1.176,.129l-1.647-.951-1.183,2.049,1.643,.948c.378,.218,.57,.656,.477,1.082-.102,.458-.153,.917-.153,1.361s.051,.903,.153,1.361c.094,.426-.099,.864-.477,1.082l-1.643,.948,1.183,2.049,1.647-.951c.377-.217,.854-.167,1.176,.129,.691,.634,1.482,1.094,2.351,1.367,.417,.131,.7,.518,.7,.954v1.893Zm1.183-4.836c-2.204,0-3.997-1.793-3.997-3.997s1.793-3.997,3.997-3.997,3.998,1.793,3.998,3.997-1.793,3.997-3.998,3.997Zm0-5.994c-1.101,0-1.997,.896-1.997,1.997s.896,1.997,1.997,1.997,1.998-.896,1.998-1.997-.896-1.997-1.998-1.997Z" style="fill: inherit;"/><path d="M45.075,52.335c-.385,0-.752-.224-.917-.599l-.575-1.313c-.425-.003-.845-.048-1.256-.136l-.847,1.151c-.327,.445-.952,.542-1.398,.213l-2.573-1.893c-.213-.157-.356-.393-.396-.655-.04-.262,.026-.529,.183-.743l.847-1.151c-.206-.367-.374-.754-.503-1.159l-1.425-.159c-.549-.061-.944-.555-.883-1.104l.353-3.174c.029-.264,.162-.505,.369-.67s.47-.246,.735-.213l1.421,.158c.108-.184,.225-.361,.349-.529,.124-.168,.257-.331,.4-.489l-.574-1.311c-.106-.243-.112-.518-.016-.765,.097-.247,.288-.446,.53-.552l2.926-1.281c.507-.221,1.096,.01,1.317,.515l.575,1.313c.425,.003,.844,.048,1.256,.136l.847-1.151c.157-.213,.393-.356,.655-.396,.259-.039,.529,.026,.743,.183l2.573,1.893c.213,.157,.356,.393,.396,.655,.04,.262-.026,.529-.183,.743l-.847,1.151c.206,.367,.374,.753,.503,1.158l1.425,.159c.264,.029,.505,.162,.67,.369,.166,.207,.242,.471,.213,.735l-.353,3.174c-.061,.549-.56,.948-1.104,.883l-1.422-.158c-.107,.183-.224,.359-.347,.528,0,0,0,0,0,.001-.124,.168-.258,.332-.4,.489l.574,1.31c.222,.506-.009,1.096-.515,1.317l-2.925,1.282c-.131,.057-.267,.084-.401,.084Zm-.852-3.945c.394,0,.755,.232,.916,.599l.451,1.028,1.094-.479-.449-1.025c-.175-.4-.071-.867,.258-1.154,.242-.211,.458-.444,.64-.691h0c.183-.249,.341-.523,.471-.818,.176-.399,.594-.638,1.025-.589l1.112,.123,.132-1.187-1.116-.124c-.434-.048-.787-.372-.871-.801-.125-.634-.375-1.212-.746-1.718-.258-.353-.257-.832,.001-1.184l.662-.898-.962-.708-.661,.899c-.259,.352-.717,.494-1.13,.353-.593-.204-1.219-.271-1.862-.201-.434,.042-.849-.193-1.024-.593l-.45-1.029-1.094,.479,.449,1.025c.175,.399,.071,.866-.257,1.154-.244,.214-.459,.447-.641,.693-.182,.247-.34,.521-.471,.818-.177,.399-.581,.642-1.025,.589l-1.112-.124-.132,1.187,1.116,.125c.434,.048,.786,.373,.871,.801,.125,.634,.375,1.212,.746,1.718,.258,.353,.258,.832,0,1.184l-.662,.898,.962,.708,.661-.899c.259-.352,.718-.494,1.13-.354,.592,.204,1.218,.27,1.861,.201,.036-.004,.072-.006,.108-.006Zm3.714-1.131h0Zm-4.293,.04c-.675,0-1.331-.214-1.885-.622h0c-1.417-1.043-1.722-3.046-.68-4.463,1.044-1.418,3.046-1.721,4.464-.68,.687,.505,1.136,1.248,1.264,2.091,.128,.843-.079,1.686-.585,2.373-.505,.687-1.247,1.136-2.09,1.264-.163,.025-.326,.037-.487,.037Zm-.7-2.233c.256,.188,.569,.264,.886,.218,.315-.048,.592-.215,.781-.472,.189-.257,.267-.572,.219-.886-.048-.315-.215-.592-.472-.781-.53-.391-1.277-.277-1.667,.253-.389,.529-.275,1.277,.254,1.667h0Z" style="fill: inherit;"/></g></svg>